#!OML:ASF X:\für Bonn\!DataBase\2005_08_11_Bastian_Final\c3d\Bastian.ASF
:FULLY-SPECIFIED
:DEGREES
1078
root 0.399532 14.0383 -2.67124 169.956 7.97004 -178.41
lowerback 66.1493 -9.80395 -2.26136
upperback 19.5833 1.13745 2.89316
thorax 0.663947 4.88171 3.77933
lowerneck -15.9979 -2.72808 -4.3949
upperneck -26.9892 1.46613 3.47012
head -5.81925 3.06175 1.67492
rclavicle 1.82882e-014 -1.53064e-014
rhumerus 21.8956 -0.537077 -67.0353
rradius 35.2951
rwrist -168.662
rhand -5.54253 -7.02399
rfingers 7.12502
rthumb 20.2721 -35.9861
lclavicle 1.82882e-014 -1.53064e-014
lhumerus 19.2441 -10.2958 48.376
lradius 57.5178
lwrist 216.951
lhand -26.2507 20.5528
lfingers 7.12502
lthumb 0.303573 50.5323
rfemur -44.9337 -0.332355 25.8275
rtibia 84.6074
rfoot -22.8931 -0.283401
rtoes 1.19493
lfemur -47.098 2.81426 -20.3164
ltibia 79.3419
lfoot -14.8875 -12.1899
ltoes -9.12893
1079
root 0.421236 14.186 -2.69813 169.948 7.71002 -178.424
lowerback 65.4496 -9.75792 -2.20364
upperback 19.5189 1.01701 2.91551
thorax 0.567853 4.7817 3.81489
lowerneck -15.706 -2.73655 -4.52513
upperneck -27.0521 1.47153 3.58422
head -5.88118 3.05906 1.73257
rclavicle 2.54444e-014 -3.22031e-014
rhumerus 21.1487 -0.00259625 -67.0854
rradius 35.8212
rwrist -169.617
rhand -5.64809 -7.42729
rfingers 7.12502
rthumb 20.1706 -36.4001
lclavicle 2.54444e-014 -3.22031e-014
lhumerus 18.0805 -10.7264 49.7293
lradius 57.4782
lwrist 217.113
lhand -26.2609 20.3953
lfingers 7.12502
lthumb 0.293765 50.3748
rfemur -43.7945 -0.355944 25.7566
rtibia 83.0459
rfoot -22.4895 -0.364223
rtoes 1.19863
lfemur -45.9179 2.68153 -20.2887
ltibia 77.8289
lfoot -14.8437 -12.0344
ltoes -9.94153
1080
root 0.442618 14.3298 -2.72695 169.872 7.4623 -178.352
lowerback 64.8269 -9.74713 -2.07465
upperback 19.4254 0.910894 2.90886
thorax 0.445469 4.7028 3.78093
lowerneck -15.4396 -2.75381 -4.55011
upperneck -27.0349 1.43005 3.65635
head -5.91057 3.01731 1.75996
rclavicle -5.1684e-014 4.07509e-014
rhumerus 20.3004 0.503418 -67.178
rradius 36.3668
rwrist -170.572
rhand -5.76849 -7.75992
rfingers 7.12502
rthumb 20.0549 -36.7449
lclavicle -5.1684e-014 4.07509e-014
lhumerus 16.8712 -11.1394 51.1166
lradius 57.4296
lwrist 217.111
lhand -26.2151 20.16
lfingers 7.12502
lthumb 0.337999 50.1395
rfemur -42.5607 -0.38603 25.7896
rtibia 81.4872
rfoot -22.0992 -0.490923
rtoes 1.11642
lfemur -44.6662 2.58121 -20.1674
ltibia 76.3458
lfoot -14.8822 -11.8871
ltoes -10.8821
1081
root 0.464326 14.4711 -2.75781 169.731 7.26959 -178.196
lowerback 64.2473 -9.73654 -1.91335
upperback 19.3402 0.841189 2.89661
thorax 0.335506 4.64962 3.71461
lowerneck -15.1426 -2.77538 -4.46232
upperneck -27.0455 1.34834 3.62568
head -5.95213 2.95021 1.734
rclavicle 4.29375e-014 4.59193e-014
rhumerus 19.3968 0.926244 -67.3408
rradius 36.9369
rwrist -171.412
rhand -5.92602 -8.03412
rfingers 7.12502
rthumb 19.9035 -37.0349
lclavicle 4.29375e-014 4.59193e-014
lhumerus 15.6051 -11.5394 52.5288
lradius 57.3598
lwrist 217.022
lhand -26.144 19.9887
lfingers 7.12502
lthumb 0.406696 49.9681
rfemur -41.2213 -0.34386 25.9247
rtibia 79.9079
rfoot -21.7288 -0.630083
rtoes 1.13142
lfemur -43.3392 2.54994 -19.9247
ltibia 74.9004
lfoot -14.9656 -11.7634
ltoes -11.7518
1082
root 0.485794 14.6087 -2.7896 169.593 7.07215 -178.067
lowerback 63.6524 -9.70694 -1.76393
upperback 19.2415 0.773692 2.90059
thorax 0.212006 4.59009 3.66908
lowerneck -14.86 -2.8006 -4.34567
upperneck -27.0308 1.24305 3.53055
head -5.98269 2.87008 1.68265
rclavicle 2.38542e-015 5.96354e-015
rhumerus 18.4184 1.51982 -67.3557
rradius 37.5579
rwrist -172.422
rhand -6.07467 -8.12238
rfingers 7.12502
rthumb 19.7606 -37.1379
lclavicle 2.38542e-015 5.96354e-015
lhumerus 14.3115 -11.8704 54.0096
lradius 57.1821
lwrist 216.907
lhand -26.1141 19.8411
lfingers 7.12502
lthumb 0.435506 49.8204
rfemur -39.9129 -0.323687 26.0302
rtibia 78.3498
rfoot -21.3425 -0.744409
rtoes 1.23432
lfemur -42.0298 2.49506 -19.7027
ltibia 73.4813
lfoot -15.1022 -11.611
ltoes -12.6896
1083
root 0.506759 14.7443 -2.82319 169.436 6.84995 -177.963
lowerback 63.0434 -9.70257 -1.60171
upperback 19.1357 0.677785 2.88183
thorax 0.0861405 4.51973 3.60333
lowerneck -14.6316 -2.84132 -4.28731
upperneck -26.9401 1.13766 3.54299
head -5.98 2.78568 1.67812
rclavicle 1.90833e-014 8.78628e-014
rhumerus 17.4068 1.93748 -67.5358
rradius 38.1735
rwrist -173.153
rhand -6.35984 -8.19198
rfingers 7.12502
rthumb 19.4864 -37.2355
lclavicle 1.90833e-014 8.78628e-014
lhumerus 12.9721 -12.1392 55.4749
lradius 56.9645
lwrist 216.78
lhand -26.1338 19.8142
lfingers 7.12502
lthumb 0.416547 49.7935
rfemur -38.5866 -0.312342 26.1012
rtibia 76.796
rfoot -20.9794 -0.878702
rtoes 1.16841
lfemur -40.7056 2.43084 -19.5148
ltibia 72.0876
lfoot -15.2882 -11.4375
ltoes -13.7574
1084
root 0.528213 14.876 -2.85853 169.302 6.63866 -177.878
lowerback 62.3688 -9.66248 -1.46361
upperback 19.0468 0.597807 2.88187
thorax -0.0190431 4.44848 3.56387
lowerneck -14.4491 -2.87382 -4.2303
upperneck -26.8097 1.04085 3.53385
head -5.95819 2.70623 1.66737
rclavicle 2.22639e-014 -3.22031e-014
rhumerus 16.3556 2.47164 -67.6068
rradius 38.827
rwrist -174.021
rhand -6.58764 -8.22645
rfingers 7.12502
rthumb 19.2674 -37.292
lclavicle 2.22639e-014 -3.22031e-014
lhumerus 11.5746 -12.3095 56.9635
lradius 56.7562
lwrist 216.614
lhand -26.2084 19.8746
lfingers 7.12502
lthumb 0.344444 49.854
rfemur -37.3172 -0.275201 26.1618
rtibia 75.2757
rfoot -20.6016 -1.021
rtoes 1.1886
lfemur -39.4267 2.35815 -19.3374
ltibia 70.7338
lfoot -15.4458 -11.2362
ltoes -14.8415
1085
root 0.548914 15.0024 -2.89452 169.177 6.40132 -177.838
lowerback 61.6185 -9.64967 -1.30044
upperback 18.9864 0.497863 2.83709
thorax -0.0848381 4.37571 3.47453
lowerneck -14.3957 -2.93192 -4.20668
upperneck -26.5752 0.935139 3.62998
head -5.88229 2.61971 1.69835
rclavicle 4.05521e-014 1.27222e-014
rhumerus 15.299 2.88131 -67.7776
rradius 39.4869
rwrist -174.723
rhand -6.7757 -8.28644
rfingers 7.12502
rthumb 19.0865 -37.3699
lclavicle 4.05521e-014 1.27222e-014
lhumerus 10.2415 -12.4762 58.3475
lradius 56.5233
lwrist 216.459
lhand -26.2779 19.9526
lfingers 7.12502
lthumb 0.277317 49.9322
rfemur -36.0962 -0.258667 26.1686
rtibia 73.7941
rfoot -20.2452 -1.16215
rtoes 1.13483
lfemur -38.1833 2.27825 -19.2169
ltibia 69.4168
lfoot -15.6001 -10.9622
ltoes -15.9572
1086
root 0.569341 15.1257 -2.93224 169.065 6.17892 -177.802
lowerback 60.8368 -9.60833 -1.15361
upperback 18.9337 0.41539 2.8155
thorax -0.138175 4.30411 3.41162
lowerneck -14.3781 -2.99012 -4.13544
upperneck -26.3257 0.809778 3.63813
head -5.79627 2.52454 1.69244
rclavicle -3.57812e-014 7.35503e-014
rhumerus 14.2385 3.30082 -67.9117
rradius 40.1482
rwrist -175.417
rhand -6.97456 -8.35012
rfingers 7.12502
rthumb 18.8953 -37.4524
lclavicle -3.57812e-014 7.35503e-014
lhumerus 8.92948 -12.5374 59.7472
lradius 56.2776
lwrist 216.244
lhand -26.3905 19.899
lfingers 7.12502
lthumb 0.168552 49.8787
rfemur -34.8903 -0.221814 26.1759
rtibia 72.3373
rfoot -19.896 -1.30885
rtoes 1.15419
lfemur -36.9685 2.19979 -19.0881
ltibia 68.1525
lfoot -15.7212 -10.608
ltoes -16.8453
1087
root 0.589053 15.2449 -2.97107 168.94 5.95425 -177.834
lowerback 60.0358 -9.54996 -1.04671
upperback 18.8853 0.322771 2.77198
thorax -0.179501 4.22554 3.34614
lowerneck -14.333 -3.0614 -4.0072
upperneck -26.1344 0.657132 3.59197
head -5.73321 2.418 1.65823
rclavicle -2.3059e-014 -3.93594e-014
rhumerus 13.1664 3.69491 -68.0682
rradius 40.8257
rwrist -176.05
rhand -7.18019 -8.41578
rfingers 7.12502
rthumb 18.6975 -37.5372
lclavicle -2.3059e-014 -3.93594e-014
lhumerus 7.65538 -12.5575 61.0789
lradius 56.0039
lwrist 216.025
lhand -26.506 19.7966
lfingers 7.12502
lthumb 0.0569888 49.7764
rfemur -33.7198 -0.171979 26.1015
rtibia 70.9258
rfoot -19.5518 -1.42804
rtoes 1.38297
lfemur -35.7471 2.12552 -19.0305
ltibia 66.9306
lfoot -15.8386 -10.1811
ltoes -17.6396
1088
root 0.607711 15.361 -3.01055 168.825 5.72609 -177.889
lowerback 59.1919 -9.4982 -0.917545
upperback 18.832 0.219186 2.6922
thorax -0.217922 4.14344 3.23528
lowerneck -14.2528 -3.13387 -3.75217
upperneck -25.9449 0.469746 3.47458
head -5.67578 2.28359 1.57922
rclavicle 2.78299e-014 -9.26337e-014
rhumerus 12.0436 4.0314 -68.3021
rradius 41.5318
rwrist -176.632
rhand -7.37945 -8.42092
rfingers 7.12502
rthumb 18.5058 -37.5607
lclavicle 2.78299e-014 -9.26337e-014
lhumerus 6.42549 -12.5271 62.3437
lradius 55.6939
lwrist 215.741
lhand -26.6287 19.6984
lfingers 7.12502
lthumb -0.0614272 49.6782
rfemur -32.5751 -0.130299 26.0084
rtibia 69.547
rfoot -19.2432 -1.56813
rtoes 1.39576
lfemur -34.5515 2.02804 -18.9971
ltibia 65.7657
lfoot -15.9362 -9.70962
ltoes -18.2488
1089
root 0.62535 15.4726 -3.0501 168.715 5.48595 -177.955
lowerback 58.3344 -9.43379 -0.796016
upperback 18.7791 0.124917 2.62611
thorax -0.249684 4.06204 3.13944
lowerneck -14.1576 -3.20114 -3.41179
upperneck -25.7756 0.259831 3.23092
head -5.62864 2.13788 1.44449
rclavicle -3.97569e-015 1.19271e-015
rhumerus 10.913 4.28569 -68.5677
rradius 42.2044
rwrist -177.113
rhand -7.59213 -8.45037
rfingers 7.12502
rthumb 18.3013 -37.6094
lclavicle -3.97569e-015 1.19271e-015
lhumerus 5.20914 -12.4576 63.5624
lradius 55.3867
lwrist 215.443
lhand -26.7489 19.6272
lfingers 7.12502
lthumb -0.177584 49.6069
rfemur -31.4733 -0.0917192 25.9022
rtibia 68.2113
rfoot -18.9222 -1.71782
rtoes 1.4216
lfemur -33.3813 1.88292 -18.9713
ltibia 64.6577
lfoot -15.9518 -9.24643
ltoes -18.7552
1090
root 0.641985 15.5793 -3.09149 168.618 5.2706 -178.054
lowerback 57.4364 -9.3504 -0.662555
upperback 18.7135 0.0371297 2.52211
thorax -0.287009 3.98218 2.99378
lowerneck -14.0773 -3.26821 -3.0391
upperneck -25.5418 0.0443738 3.0216
head -5.55916 1.97969 1.31641
rclavicle -7.95139e-015 2.78299e-014
rhumerus 9.74304 4.48087 -68.8872
rradius 42.8686
rwrist -177.597
rhand -7.75895 -8.49023
rfingers 7.12502
rthumb 18.1408 -37.6643
lclavicle -7.95139e-015 2.78299e-014
lhumerus 3.98792 -12.4077 64.704
lradius 55.0609
lwrist 215.169
lhand -26.8628 19.6183
lfingers 7.12502
lthumb -0.287604 49.5979
rfemur -30.4101 -0.0174024 25.7576
rtibia 66.9255
rfoot -18.6431 -1.86798
rtoes 1.44331
lfemur -32.2277 1.76406 -18.9738
ltibia 63.615
lfoot -15.9244 -8.84131
ltoes -18.9376
1091
root 0.657284 15.6818 -3.13263 168.555 5.05552 -178.196
lowerback 56.5041 -9.23037 -0.602991
upperback 18.6484 -0.0610751 2.44649
thorax -0.31386 3.88208 2.91587
lowerneck -13.993 -3.32064 -2.82847
upperneck -25.2914 -0.114557 2.94235
head -5.48588 1.8556 1.25834
rclavicle -5.08889e-014 -3.4191e-014
rhumerus 8.60026 4.70576 -69.189
rradius 43.5282
rwrist -178.117
rhand -7.88649 -8.61516
rfingers 7.12502
rthumb 18.0181 -37.8006
lclavicle -5.08889e-014 -3.4191e-014
lhumerus 2.73338 -12.2924 65.8198
lradius 54.7031
lwrist 214.953
lhand -26.8864 19.7175
lfingers 7.12502
lthumb -0.310346 49.697
rfemur -29.4315 0.0366362 25.5708
rtibia 65.6865
rfoot -18.3358 -1.99181
rtoes 1.45084
lfemur -31.1236 1.60713 -19.0206
ltibia 62.6384
lfoot -15.8335 -8.40474
ltoes -19.3278
